<svg width="921" height="157" viewBox="0 0 921 157" fill="none" xmlns="http://www.w3.org/2000/svg">
<path d="M137.427 106.904C136.465 109.33 136.251 111.989 136.812 114.538L143.779 136.06C144.004 137.152 143.946 138.282 143.611 139.345C143.276 140.408 142.675 141.367 141.865 142.133C141.055 142.898 140.063 143.444 138.983 143.718C137.903 143.993 136.771 143.987 135.694 143.701L113.367 137.172C110.962 136.695 108.47 136.904 106.178 137.774C92.2088 144.298 76.3846 145.678 61.4972 141.671C46.6098 137.664 33.6159 128.528 24.808 115.875C16.0001 103.221 11.9443 87.8638 13.3561 72.5114C14.768 57.159 21.5568 42.7986 32.5247 31.9639C43.4927 21.1291 57.9349 14.5162 73.3034 13.292C88.6719 12.0678 103.979 16.3109 116.524 25.2727C129.069 34.2345 138.045 47.339 141.87 62.2743C145.694 77.2095 144.121 93.0156 137.427 106.904Z" stroke="black" stroke-width="6" stroke-linecap="round" stroke-linejoin="round"/>
<path d="M89.6667 54.375C88.1859 54.375 86.7657 54.9632 85.7187 56.0103C84.6716 57.0574 84.0833 58.4775 84.0833 59.9583V76.7083C84.0833 78.1891 84.6716 79.6093 85.7187 80.6563C86.7657 81.7034 88.1859 82.2917 89.6667 82.2917C90.4071 82.2917 91.1171 82.5858 91.6407 83.1093C92.1642 83.6329 92.4583 84.3429 92.4583 85.0833V87.875C92.4583 89.3558 91.8701 90.7759 90.823 91.823C89.7759 92.8701 88.3558 93.4583 86.875 93.4583C86.1346 93.4583 85.4245 93.7525 84.901 94.276C84.3775 94.7995 84.0833 95.5096 84.0833 96.25V101.833C84.0833 102.574 84.3775 103.284 84.901 103.807C85.4245 104.331 86.1346 104.625 86.875 104.625C91.3174 104.625 95.5778 102.86 98.719 99.719C101.86 96.5778 103.625 92.3174 103.625 87.875V59.9583C103.625 58.4775 103.037 57.0574 101.99 56.0103C100.943 54.9632 99.5225 54.375 98.0417 54.375H89.6667Z" stroke="black" stroke-width="6" stroke-linecap="round" stroke-linejoin="round"/>
<path d="M58.9583 54.375C57.4775 54.375 56.0574 54.9632 55.0103 56.0103C53.9632 57.0574 53.375 58.4775 53.375 59.9583V76.7083C53.375 78.1891 53.9632 79.6093 55.0103 80.6563C56.0574 81.7034 57.4775 82.2917 58.9583 82.2917C59.6987 82.2917 60.4088 82.5858 60.9323 83.1093C61.4559 83.6329 61.75 84.3429 61.75 85.0833V87.875C61.75 89.3558 61.1618 90.7759 60.1147 91.823C59.0676 92.8701 57.6475 93.4583 56.1667 93.4583C55.4263 93.4583 54.7162 93.7525 54.1927 94.276C53.6691 94.7995 53.375 95.5096 53.375 96.25V101.833C53.375 102.574 53.6691 103.284 54.1927 103.807C54.7162 104.331 55.4263 104.625 56.1667 104.625C60.609 104.625 64.8695 102.86 68.0107 99.719C71.1519 96.5778 72.9167 92.3174 72.9167 87.875V59.9583C72.9167 58.4775 72.3284 57.0574 71.2813 56.0103C70.2343 54.9632 68.8141 54.375 67.3333 54.375H58.9583Z" stroke="black" stroke-width="6" stroke-linecap="round" stroke-linejoin="round"/>
<path d="M214.727 55.1818V66.0909H176.591V55.1818H214.727ZM186.818 38.4545H200.409V104.5C200.409 107.136 200.803 109.121 201.591 110.455C202.379 111.758 203.394 112.652 204.636 113.136C205.909 113.591 207.288 113.818 208.773 113.818C209.864 113.818 210.818 113.742 211.636 113.591C212.455 113.439 213.091 113.318 213.545 113.227L216 124.455C215.212 124.758 214.091 125.061 212.636 125.364C211.182 125.697 209.364 125.879 207.182 125.909C203.606 125.97 200.273 125.333 197.182 124C194.091 122.667 191.591 120.606 189.682 117.818C187.773 115.03 186.818 111.53 186.818 107.318V38.4545ZM259.102 126.409C252.223 126.409 246.299 124.939 241.33 122C236.39 119.03 232.572 114.864 229.875 109.5C227.208 104.106 225.875 97.7879 225.875 90.5455C225.875 83.3939 227.208 77.0909 229.875 71.6364C232.572 66.1818 236.33 61.9242 241.148 58.8636C245.996 55.803 251.663 54.2727 258.148 54.2727C262.087 54.2727 265.905 54.9242 269.602 56.2273C273.299 57.5303 276.617 59.5758 279.557 62.3636C282.496 65.1515 284.814 68.7727 286.511 73.2273C288.208 77.6515 289.057 83.0303 289.057 89.3636V94.1818H233.557V84H275.739C275.739 80.4242 275.011 77.2576 273.557 74.5C272.102 71.7121 270.057 69.5151 267.42 67.9091C264.814 66.303 261.754 65.5 258.239 65.5C254.42 65.5 251.087 66.4394 248.239 68.3182C245.42 70.1667 243.239 72.5909 241.693 75.5909C240.178 78.5606 239.42 81.7879 239.42 85.2727V93.2273C239.42 97.8939 240.239 101.864 241.875 105.136C243.542 108.409 245.86 110.909 248.83 112.636C251.799 114.333 255.269 115.182 259.239 115.182C261.814 115.182 264.163 114.818 266.284 114.091C268.405 113.333 270.239 112.212 271.784 110.727C273.33 109.242 274.511 107.409 275.33 105.227L288.193 107.545C287.163 111.333 285.314 114.652 282.648 117.5C280.011 120.318 276.693 122.515 272.693 124.091C268.723 125.636 264.193 126.409 259.102 126.409ZM356.455 72.2273L344.136 74.4091C343.621 72.8333 342.803 71.3333 341.682 69.9091C340.591 68.4848 339.106 67.3182 337.227 66.4091C335.348 65.5 333 65.0455 330.182 65.0455C326.333 65.0455 323.121 65.9091 320.545 67.6364C317.97 69.3333 316.682 71.5303 316.682 74.2273C316.682 76.5606 317.545 78.4394 319.273 79.8636C321 81.2879 323.788 82.4545 327.636 83.3636L338.727 85.9091C345.152 87.3939 349.939 89.6818 353.091 92.7727C356.242 95.8636 357.818 99.8788 357.818 104.818C357.818 109 356.606 112.727 354.182 116C351.788 119.242 348.439 121.788 344.136 123.636C339.864 125.485 334.909 126.409 329.273 126.409C321.455 126.409 315.076 124.742 310.136 121.409C305.197 118.045 302.167 113.273 301.045 107.091L314.182 105.091C315 108.515 316.682 111.106 319.227 112.864C321.773 114.591 325.091 115.455 329.182 115.455C333.636 115.455 337.197 114.53 339.864 112.682C342.53 110.803 343.864 108.515 343.864 105.818C343.864 103.636 343.045 101.803 341.409 100.318C339.803 98.8333 337.333 97.7121 334 96.9545L322.182 94.3636C315.667 92.8788 310.848 90.5152 307.727 87.2727C304.636 84.0303 303.091 79.9242 303.091 74.9545C303.091 70.8333 304.242 67.2273 306.545 64.1364C308.848 61.0455 312.03 58.6364 316.091 56.9091C320.152 55.1515 324.803 54.2727 330.045 54.2727C337.591 54.2727 343.53 55.9091 347.864 59.1818C352.197 62.4242 355.061 66.7727 356.455 72.2273ZM405.352 55.1818V66.0909H367.216V55.1818H405.352ZM377.443 38.4545H391.034V104.5C391.034 107.136 391.428 109.121 392.216 110.455C393.004 111.758 394.019 112.652 395.261 113.136C396.534 113.591 397.913 113.818 399.398 113.818C400.489 113.818 401.443 113.742 402.261 113.591C403.08 113.439 403.716 113.318 404.17 113.227L406.625 124.455C405.837 124.758 404.716 125.061 403.261 125.364C401.807 125.697 399.989 125.879 397.807 125.909C394.231 125.97 390.898 125.333 387.807 124C384.716 122.667 382.216 120.606 380.307 117.818C378.398 115.03 377.443 111.53 377.443 107.318V38.4545ZM420.386 125V55.1818H433.977V125H420.386ZM427.25 44.4091C424.886 44.4091 422.856 43.6212 421.159 42.0454C419.492 40.4394 418.659 38.5303 418.659 36.3182C418.659 34.0758 419.492 32.1667 421.159 30.5909C422.856 28.9848 424.886 28.1818 427.25 28.1818C429.614 28.1818 431.629 28.9848 433.295 30.5909C434.992 32.1667 435.841 34.0758 435.841 36.3182C435.841 38.5303 434.992 40.4394 433.295 42.0454C431.629 43.6212 429.614 44.4091 427.25 44.4091ZM452.261 125V55.1818H465.307V66.5455H466.17C467.625 62.697 470.004 59.697 473.307 57.5455C476.61 55.3636 480.564 54.2727 485.17 54.2727C489.837 54.2727 493.746 55.3636 496.898 57.5455C500.08 59.7273 502.428 62.7273 503.943 66.5455H504.67C506.337 62.8182 508.989 59.8485 512.625 57.6364C516.261 55.3939 520.595 54.2727 525.625 54.2727C531.958 54.2727 537.125 56.2576 541.125 60.2273C545.155 64.197 547.17 70.1818 547.17 78.1818V125H533.58V79.4545C533.58 74.7273 532.292 71.303 529.716 69.1818C527.14 67.0606 524.064 66 520.489 66C516.064 66 512.625 67.3636 510.17 70.0909C507.716 72.7879 506.489 76.2576 506.489 80.5V125H492.943V78.5909C492.943 74.803 491.761 71.7576 489.398 69.4545C487.034 67.1515 483.958 66 480.17 66C477.595 66 475.216 66.6818 473.034 68.0455C470.883 69.3788 469.14 71.2424 467.807 73.6364C466.504 76.0303 465.852 78.803 465.852 81.9545V125H452.261ZM594.795 126.409C588.25 126.409 582.538 124.909 577.659 121.909C572.78 118.909 568.992 114.712 566.295 109.318C563.598 103.924 562.25 97.6212 562.25 90.4091C562.25 83.1667 563.598 76.8333 566.295 71.4091C568.992 65.9848 572.78 61.7727 577.659 58.7727C582.538 55.7727 588.25 54.2727 594.795 54.2727C601.341 54.2727 607.053 55.7727 611.932 58.7727C616.811 61.7727 620.598 65.9848 623.295 71.4091C625.992 76.8333 627.341 83.1667 627.341 90.4091C627.341 97.6212 625.992 103.924 623.295 109.318C620.598 114.712 616.811 118.909 611.932 121.909C607.053 124.909 601.341 126.409 594.795 126.409ZM594.841 115C599.083 115 602.598 113.879 605.386 111.636C608.174 109.394 610.235 106.409 611.568 102.682C612.932 98.9545 613.614 94.8485 613.614 90.3636C613.614 85.9091 612.932 81.8182 611.568 78.0909C610.235 74.3333 608.174 71.3182 605.386 69.0455C602.598 66.7727 599.083 65.6364 594.841 65.6364C590.568 65.6364 587.023 66.7727 584.205 69.0455C581.417 71.3182 579.341 74.3333 577.977 78.0909C576.644 81.8182 575.977 85.9091 575.977 90.3636C575.977 94.8485 576.644 98.9545 577.977 102.682C579.341 106.409 581.417 109.394 584.205 111.636C587.023 113.879 590.568 115 594.841 115ZM656.102 83.5455V125H642.511V55.1818H655.557V66.5455H656.42C658.027 62.8485 660.542 59.8788 663.966 57.6364C667.42 55.3939 671.769 54.2727 677.011 54.2727C681.769 54.2727 685.936 55.2727 689.511 57.2727C693.087 59.2424 695.86 62.1818 697.83 66.0909C699.799 70 700.784 74.8333 700.784 80.5909V125H687.193V82.2273C687.193 77.1667 685.875 73.2121 683.239 70.3636C680.602 67.4848 676.981 66.0455 672.375 66.0455C669.223 66.0455 666.42 66.7273 663.966 68.0909C661.542 69.4545 659.617 71.4545 658.193 74.0909C656.799 76.697 656.102 79.8485 656.102 83.5455ZM725.102 151.182C723.072 151.182 721.223 151.015 719.557 150.682C717.89 150.379 716.648 150.045 715.83 149.682L719.102 138.545C721.587 139.212 723.799 139.5 725.739 139.409C727.678 139.318 729.39 138.591 730.875 137.227C732.39 135.864 733.723 133.636 734.875 130.545L736.557 125.909L711.011 55.1818H725.557L743.239 109.364H743.966L761.648 55.1818H776.239L747.466 134.318C746.133 137.955 744.436 141.03 742.375 143.545C740.314 146.091 737.86 148 735.011 149.273C732.163 150.545 728.86 151.182 725.102 151.182ZM793.591 125.864C791.106 125.864 788.97 124.985 787.182 123.227C785.394 121.439 784.5 119.288 784.5 116.773C784.5 114.288 785.394 112.167 787.182 110.409C788.97 108.621 791.106 107.727 793.591 107.727C796.076 107.727 798.212 108.621 800 110.409C801.788 112.167 802.682 114.288 802.682 116.773C802.682 118.439 802.258 119.97 801.409 121.364C800.591 122.727 799.5 123.818 798.136 124.636C796.773 125.455 795.258 125.864 793.591 125.864ZM820.886 125V55.1818H834.477V125H820.886ZM827.75 44.4091C825.386 44.4091 823.356 43.6212 821.659 42.0454C819.992 40.4394 819.159 38.5303 819.159 36.3182C819.159 34.0758 819.992 32.1667 821.659 30.5909C823.356 28.9848 825.386 28.1818 827.75 28.1818C830.114 28.1818 832.129 28.9848 833.795 30.5909C835.492 32.1667 836.341 34.0758 836.341 36.3182C836.341 38.5303 835.492 40.4394 833.795 42.0454C832.129 43.6212 830.114 44.4091 827.75 44.4091ZM882.17 126.409C875.625 126.409 869.913 124.909 865.034 121.909C860.155 118.909 856.367 114.712 853.67 109.318C850.973 103.924 849.625 97.6212 849.625 90.4091C849.625 83.1667 850.973 76.8333 853.67 71.4091C856.367 65.9848 860.155 61.7727 865.034 58.7727C869.913 55.7727 875.625 54.2727 882.17 54.2727C888.716 54.2727 894.428 55.7727 899.307 58.7727C904.186 61.7727 907.973 65.9848 910.67 71.4091C913.367 76.8333 914.716 83.1667 914.716 90.4091C914.716 97.6212 913.367 103.924 910.67 109.318C907.973 114.712 904.186 118.909 899.307 121.909C894.428 124.909 888.716 126.409 882.17 126.409ZM882.216 115C886.458 115 889.973 113.879 892.761 111.636C895.549 109.394 897.61 106.409 898.943 102.682C900.307 98.9545 900.989 94.8485 900.989 90.3636C900.989 85.9091 900.307 81.8182 898.943 78.0909C897.61 74.3333 895.549 71.3182 892.761 69.0455C889.973 66.7727 886.458 65.6364 882.216 65.6364C877.943 65.6364 874.398 66.7727 871.58 69.0455C868.792 71.3182 866.716 74.3333 865.352 78.0909C864.019 81.8182 863.352 85.9091 863.352 90.3636C863.352 94.8485 864.019 98.9545 865.352 102.682C866.716 106.409 868.792 109.394 871.58 111.636C874.398 113.879 877.943 115 882.216 115Z" fill="black"/>
</svg>
